<svg id="Layer_1" data-name="Layer 1" xmlns="http://www.w3.org/2000/svg" viewBox="0 0 534 438"><defs><style>.cls-1{fill:#a3150a;}.cls-2{fill:#f1ecdd;}.cls-3{fill:none;stroke:#1c2b27;stroke-miterlimit:10;stroke-width:16px;}.cls-4{fill:#1c2b27;}</style></defs><circle class="cls-1" cx="258.9" cy="219" r="180.9"/><ellipse class="cls-2" cx="258.9" cy="219" rx="167.1" ry="164.5"/><circle class="cls-3" cx="166.8" cy="248" r="52"/><path class="cls-4" d="M211,121.6h34a3.55,3.55,0,0,1,3.4,3.6v4.7a3.48,3.48,0,0,1-3.4,3.6H211a3.55,3.55,0,0,1-3.4-3.6v-4.7A3.55,3.55,0,0,1,211,121.6Z"/><path class="cls-4" d="M265,261.1l-72.4-79.7a2.27,2.27,0,0,1,0-2.5h0l8.1-7.4a1.61,1.61,0,0,1,2.5.2l72.4,79.7a2,2,0,0,1,0,2.3l-.2.2-8.1,7.4A1.84,1.84,0,0,1,265,261.1Z"/><path class="cls-4" d="M201.1,159.3H305.9a1.67,1.67,0,0,1,1.6,1.7v10.4a1.67,1.67,0,0,1-1.6,1.7H201.1a1.67,1.67,0,0,1-1.6-1.7V161A1.67,1.67,0,0,1,201.1,159.3Z"/><path class="cls-4" d="M261.3,250.6l49.9-109.3a1.72,1.72,0,0,1,2.3-.9l9.2,4.2a1.77,1.77,0,0,1,.9,2.3v.2L273.7,256.4a1.72,1.72,0,0,1-2.3.9l-9.2-4.2a2.1,2.1,0,0,1-.9-2.5Z"/><path class="cls-4" d="M288.4,138.7h47.4a2.44,2.44,0,0,1,2.3,2.5v6.5a2.51,2.51,0,0,1-2.3,2.5H288.7a4.85,4.85,0,0,1-4.6-4.9h0v-1.9C284.1,140.7,285.9,138.7,288.4,138.7Z"/><circle class="cls-3" cx="351.4" cy="248" r="52"/><path class="cls-4" d="M160.9,262.4h0a7.32,7.32,0,0,0,9.6-4.2l50.8-127.7a4.46,4.46,0,0,0-1.9-5.3.2.2,0,0,1-.2-.2l-6.7-2.7a4.13,4.13,0,0,0-5.3,2.3L156.8,251.8a8.3,8.3,0,0,0,4.1,10.4C160.7,262.2,160.9,262.2,160.9,262.4Z"/><path class="cls-4" d="M311.4,158.4l45,91.9a8.28,8.28,0,0,1-3.2,10.6c-.2,0-.4.2-.5.2h0a6.42,6.42,0,0,1-8.8-3l-45.5-93.2a1,1,0,0,1,.4-1.3h0l11.3-5.5c.2-.5.9-.3,1.3.3Z"/><path class="cls-4" d="M349.8,262.2H269.1a4.51,4.51,0,0,1-4.4-4.7v-4a4.42,4.42,0,0,1,4.2-4.7h83.5a3.89,3.89,0,0,1,3.7,4v2.1A6.44,6.44,0,0,1,349.8,262.2Z"/><ellipse class="cls-4" cx="265.3" cy="251.2" rx="15.8" ry="16.5"/></svg>