<svg id="Layer_1" data-name="Layer 1" xmlns="http://www.w3.org/2000/svg" viewBox="0 0 534 438"><defs><style>.cls-1{fill:#ecebe2;}.cls-2{fill:none;stroke:#71cca0;stroke-miterlimit:10;stroke-width:1.99px;}.cls-3{fill:#a3150a;}.cls-4{fill:#71cca0;}.cls-5{fill:#0c0440;}</style></defs><ellipse class="cls-1" cx="258.94" cy="204.6" rx="167.06" ry="164.5"/><polygon class="cls-2" points="102.67 253.16 106.49 253.16 106.49 222.97 107.96 222.97 107.96 194.8 116.04 194.8 116.04 191.25 114.13 191.25 113.99 187.95 116.04 187.95 116.04 183.64 120.16 183.64 120.16 186.43 121.48 186.68 121.48 189.22 123.39 188.97 126.78 182.12 131.77 178.56 141.77 178.56 145.88 182.12 149.27 189.22 151.76 189.47 151.76 186.43 153.38 185.92 153.38 183.13 156.91 183.13 156.91 187.19 158.38 187.19 158.38 190.74 156.62 190.74 156.76 194.55 164.85 194.3 164.85 207.49 166.17 207.49 166.17 222.71 167.64 222.97 167.64 249.86 169.11 249.61 169.11 218.4 167.49 217.89 167.35 214.59 169.11 214.59 169.11 210.79 171.9 211.04 171.9 192.01 169.55 189.98 171.9 189.47 171.9 181.61 174.84 171.21 178.37 165.88 180.87 165.88 180.87 162.07 183.37 162.07 183.37 157.51 185.13 157.51 185.13 150.15 183.52 150.15 183.37 145.84 185.13 145.84 186.46 141.27 186.46 123.25 184.4 123.25 184.4 121.1 186.46 121.1 186.46 117.29 187.63 117.29 187.63 121.1 189.1 121.1 189.1 123.1 187.58 123.1 187.53 140.9 189.1 145.52 190.43 145.52 190.43 149.08 188.68 149.23 188.76 157.79 190.21 157.79 190.21 159.92 192.1 159.84 192.1 165.07 194.07 164.76 197.1 168.4 200.53 175.82 200.92 181.66 202.41 181.74 202.41 192.11 201.1 192.34 201.53 212.95 205.05 212.93 205.05 215.62 206.26 215.62 206.26 217.88 204.44 218 204.92 250.01 207.68 249.91 207.68 212.03 207.68 209.59 205.86 209.69 205.74 206.44 207.27 206.14 208.27 198.83 210.09 191.92 234.75 192.53 234.98 174.45 233.04 174.56 235.87 168.56 235.87 148.25 233.98 147.95 236.87 144.39 236.87 130.48 235.04 130.28 237.87 127.74 237.87 119.72 238.75 119.51 238.75 109.77 239.98 109.26 239.98 100.93 241.04 100.93 241.04 95.95 241.63 95.95 241.63 86.61 244.4 86.61 244.4 90.06 242.34 90.17 242.34 95.95 243.16 95.85 243.04 100.32 243.93 100.32 243.75 108.24 244.81 108.34 244.81 118.91 245.81 118.8 245.81 127.13 247.75 129.47 245.4 129.67 245.51 143.48 248.22 147.14 245.57 147.54 245.69 167.85 249.46 173.44 246.28 173.74 246.4 192.43 273.3 192.55 275.21 199.37 275.85 205.31 277.5 205.31 277.5 208.37 275.85 208.3 275.94 253.16 279.02 253.16 279.02 183.39 277.98 183.4 277.88 179.96 281.72 180.05 281.72 183.4 280.18 183.4 280.24 192.41 293.34 192.24 293.34 184.46 297.69 179.43 297.69 171.48 296.2 171.57 296.2 168.21 298.81 167.95 298.81 161.76 300.04 159.73 300.25 143.48 301.37 143.57 301.37 146.84 304.39 146.92 304.39 151.96 301.22 151.96 301.22 159.47 302.65 161.32 302.8 167.77 304.7 167.77 304.7 171.13 302.75 171.13 302.7 179.34 306.95 184.38 306.95 192.77 314.98 192.5 314.98 188.35 313.55 188.35 314.57 185.79 314.78 173.16 312.99 172.98 314.98 168.92 314.98 162.65 312.83 162.29 316.72 154.96 316.72 143.66 314.83 143.66 318.51 136.77 318.51 128.46 319.69 128.46 319.69 119.98 320.41 119.9 320.41 102.14 321.38 102.14 321.38 104.97 324.4 105.14 324.4 111.06 321.43 110.97 321.48 119.54 322.81 119.72 322.71 128.11 324.4 128.11 324.4 136.5 326.86 142.95 324.3 143.13 324.3 154.17 327.88 161.23 325.47 161.32 325.63 169.01 328.24 172.36 325.73 172.54 326.04 185.43 327.88 187.73 325.78 188 325.83 192.5 334.63 192.5 334.63 184.11 338.98 178.81 338.98 172.01 337.09 172.01 339.7 166.97 339.7 160.88 340.57 160.62 340.26 143.3 341.13 143.21 341.13 146.75 344.36 146.84 344.36 152.05 341.18 152.13 341.29 160.44 342.46 160.44 342.51 166.97 345.13 171.39 342.92 171.57 342.92 178.37 347.38 184.99 347.38 192.5 361.5 192.5 361.5 185.35 360.27 185.35 360.17 180.49 363.91 180.66 363.91 253.16 366.81 253.16 366.81 206.33 365.63 206.33 365.74 199.65 368.27 197.18 368.27 193.62 369.18 193.55 369.18 197.55 371.28 200.59 371.28 193.92 373.43 193.84 373.43 191.17 376.05 190.88 376.05 186.65 380.14 186.57 379.88 162.16 387.23 162.16 387.23 170.33 381.6 170.55 381.64 186.05 386.07 186.28 386.2 190.28 388.13 190.28 388.13 193.1 390.19 192.95 390.19 200.97 393.12 197.03 393.12 193.1 394.32 193.1 394.32 197.7 395.96 199.6 395.96 206.94 394.42 206.94 394.7 253.16 397.41 252.45 397.89 172.26 396.25 171.43 396.35 168.6 406.78 163.93 406.78 160.76 409.87 160.76 409.87 163.59 419.24 169.88 419.24 172.93 417.6 173.26 417.98 253.16 102.67 253.16"/><path class="cls-3" d="M100,243.44a166.55,166.55,0,0,1-4.86-39.95c0-90.8,74.09-164.65,165.18-164.65s165.19,73.85,165.19,164.65a166.55,166.55,0,0,1-4.86,39.95h14.57a179.65,179.65,0,0,0,4.62-39.95c0-103.88-83.08-178.7-179.27-178.7-98.87,0-179.28,80.15-179.28,178.7a166.43,166.43,0,0,0,4.62,39.95Z"/><path class="cls-4" d="M421,114c12.67,24.95,27.15,64.13,22,110.43a175.82,175.82,0,0,1-3.4,20,10.24,10.24,0,0,1,4.37,2.66l7.53,7.51a195,195,0,0,0,6.8-50.85,198.77,198.77,0,0,0-24.05-94.43L467,88l-9-13q-18.28,12.21-36.6,24.65L415,104l.32.55c.39.68,1.07,1.55,1.68,2.45.23.33.41.63.78,1.23C419.13,110.41,420.68,113.39,421,114Z"/><path class="cls-3" d="M403.42,285.57a165.55,165.55,0,0,1-286.64.24h-16c29.88,57.39,90.12,96.86,159.35,96.86a179.81,179.81,0,0,0,159.35-96.86h-16Z"/><path class="cls-4" d="M434.76,297l-10.45-10.41A184.16,184.16,0,0,1,260.34,387a196.27,196.27,0,0,1-25.75-1.69c-4.85-.73-9.71-1.45-13.11-2.18A189.09,189.09,0,0,1,168,362.33c-2.09-1.23-3.43-1.83-4.69-1.66-2.24.3-3.65,2.31-4.06,2.87C156.64,367.1,145.5,377.83,128,394l-16,16,11,10q9-8.94,18-18,12.54-12.6,24.85-25.15c41.27,21.41,76,24.21,94.49,24.22a193.55,193.55,0,0,0,27.21-1.94A202.35,202.35,0,0,0,434.76,297Z"/><path class="cls-4" d="M510,339l-77.19-76.67L16,263V247l419.73,1.28a7,7,0,0,1,5.1,2.18L519,329Z"/><path class="cls-5" d="M482,407q.18-34.56.37-69.13l-57.09-57.14L51,281V266l377,.68a7,7,0,0,1,5.1,2.18l61.21,61.26a7.36,7.36,0,0,1,2,5.09q-.12,35.9-.22,71.79Z"/><ellipse class="cls-5" cx="274.42" cy="227.07" rx="29.37" ry="27.42"/><rect class="cls-5" x="297.46" y="160.49" width="23.04" height="6.35" rx="1.94"/><path class="cls-5" d="M329.89,234,289,192a.89.89,0,0,1,0-1.26l0,0,4.6-3.9a1,1,0,0,1,1.38.06l40.91,42a.86.86,0,0,1,0,1.24l-.06.06-4.6,3.9A1,1,0,0,1,329.89,234Z"/><rect class="cls-5" x="292.86" y="180.35" width="61.05" height="7.27" rx="0.9"/><path class="cls-5" d="M327.83,228.49l28.22-57.57a1,1,0,0,1,1.32-.46l5.2,2.23a.91.91,0,0,1,.53,1.17l0,.07-28.22,57.56a1,1,0,0,1-1.33.46l-5.2-2.22a.91.91,0,0,1-.52-1.18Z"/><path class="cls-5" d="M343.05,169.49h26.76a1.27,1.27,0,0,1,1.27,1.27v3.44a1.27,1.27,0,0,1-1.27,1.27H343.23a2.57,2.57,0,0,1-2.57-2.57h0v-1A2.43,2.43,0,0,1,343.05,169.49Z"/><ellipse class="cls-5" cx="378.68" cy="227.07" rx="29.37" ry="27.42"/><ellipse class="cls-5" cx="275" cy="226.8" rx="22.46" ry="20.7"/><path class="cls-5" d="M271.14,234.66h0a4.29,4.29,0,0,0,5.43-2.19l28.68-67.31a2.12,2.12,0,0,0-1.14-2.76l-.15-.05-3.84-1.42a2.38,2.38,0,0,0-3,1.21l-28.55,67a4.2,4.2,0,0,0,2.31,5.47Z"/><ellipse class="cls-5" cx="378.84" cy="227.07" rx="22.46" ry="20.7"/><path class="cls-5" d="M356.05,179.92l25.37,48.41a4.15,4.15,0,0,1-1.81,5.58l-.28.13h0a3.85,3.85,0,0,1-5-1.6l-25.74-49.13a.5.5,0,0,1,.23-.68l0,0,6.42-2.93a.56.56,0,0,1,.77.23Z"/><path class="cls-5" d="M377.81,234.6H332.17a2.46,2.46,0,0,1-2.46-2.46V230a2.46,2.46,0,0,1,2.45-2.47H379.4a2.15,2.15,0,0,1,2.15,2.15v1.14A3.75,3.75,0,0,1,377.81,234.6Z"/><ellipse class="cls-5" cx="330.14" cy="228.79" rx="8.91" ry="8.7"/></svg>