<svg id="Layer_1" data-name="Layer 1" xmlns="http://www.w3.org/2000/svg" viewBox="0 0 534 438"><defs><style>.cls-1{fill:#f1ecdd;}.cls-2,.cls-6{fill:none;stroke:#1c2b27;stroke-miterlimit:10;}.cls-3{fill:#a3150a;}.cls-4{fill:#a9d0da;}.cls-5{fill:#1c2b27;}.cls-6{stroke-width:7px;}</style></defs><ellipse class="cls-1" cx="251.85" cy="198.51" rx="167.1" ry="164.5"/><polygon class="cls-2" points="95.65 247.1 99.45 247.1 99.45 216.91 100.95 216.91 100.95 188.71 108.95 188.71 108.95 185.21 107.05 185.21 106.95 181.91 108.95 181.91 108.95 177.5 113.15 177.5 113.15 180.31 114.45 180.6 114.45 183.1 116.35 182.91 119.75 176 124.75 172.5 134.75 172.5 138.85 176 142.25 183.1 144.75 183.41 144.75 180.31 146.35 179.81 146.35 177 149.85 177 149.85 181.1 151.35 181.1 151.35 184.6 149.55 184.6 149.75 188.41 157.75 188.21 157.75 201.41 159.15 201.41 159.15 216.6 160.55 216.91 160.55 243.81 162.05 243.5 162.05 212.31 160.45 211.81 160.25 208.5 162.05 208.5 162.05 204.71 164.85 204.91 164.85 185.91 162.55 183.91 164.85 183.41 164.85 175.5 167.75 165.1 171.35 159.81 173.85 159.81 173.85 156 176.35 156 176.35 151.41 178.05 151.41 178.05 144 176.45 144 176.35 139.71 178.05 139.71 179.45 135.21 179.45 117.2 177.35 117.2 177.35 115 179.45 115 179.45 111.2 180.55 111.2 180.55 115 182.05 115 182.05 117 180.55 117 180.45 134.81 182.05 139.41 183.35 139.41 183.35 143 181.65 143.1 181.75 151.71 183.15 151.71 183.15 153.81 185.05 153.71 185.05 159 187.05 158.71 190.05 162.31 193.45 169.71 193.85 175.6 195.35 175.6 195.35 186 194.05 186.21 194.45 206.81 198.05 206.81 198.05 209.5 199.25 209.5 199.25 211.81 197.35 211.91 197.85 243.91 200.65 243.81 200.65 205.91 200.65 203.5 198.85 203.6 198.65 200.31 200.25 200 201.25 192.71 203.05 185.81 227.65 186.41 227.95 168.41 225.95 168.5 228.85 162.5 228.85 142.21 226.95 141.81 229.85 138.31 229.85 124.41 227.95 124.2 230.85 121.61 230.85 113.61 231.65 113.41 231.65 103.7 232.95 103.2 232.95 94.81 233.95 94.81 233.95 89.91 234.55 89.91 234.55 80.5 237.35 80.5 237.35 84 235.25 84.11 235.25 89.91 236.15 89.81 235.95 94.2 236.85 94.2 236.65 102.11 237.75 102.2 237.75 112.81 238.75 112.7 238.75 121 240.75 123.41 238.35 123.61 238.45 137.41 241.15 141 238.55 141.41 238.65 161.81 242.45 167.31 239.25 167.6 239.35 186.31 266.25 186.41 268.15 193.31 268.75 199.21 270.45 199.21 270.45 202.31 268.75 202.21 268.85 247.1 271.95 247.1 271.95 177.31 270.95 177.31 270.85 173.91 274.65 173.91 274.65 177.31 273.15 177.31 273.15 186.31 286.25 186.1 286.25 178.41 290.65 173.31 290.65 165.41 289.15 165.5 289.15 162.1 291.75 161.81 291.75 155.71 292.95 153.6 293.15 137.41 294.35 137.5 294.35 140.71 297.35 140.81 297.35 145.91 294.15 145.91 294.15 153.41 295.55 155.21 295.75 161.71 297.65 161.71 297.65 165 295.75 165 295.65 173.21 299.85 178.31 299.85 186.71 307.95 186.41 307.95 182.21 306.55 182.21 307.55 179.71 307.75 167.1 305.95 166.91 307.95 162.81 307.95 156.5 305.75 156.21 309.65 148.91 309.65 137.6 307.75 137.6 311.45 130.71 311.45 122.41 312.65 122.41 312.65 113.91 313.35 113.81 313.35 96 314.35 96 314.35 98.91 317.35 99 317.35 105 314.35 104.91 314.45 113.41 315.75 113.61 315.65 122 317.35 122 317.35 130.41 319.85 136.81 317.25 137 317.25 148.1 320.85 155.1 318.45 155.21 318.55 162.91 321.15 166.31 318.65 166.41 318.95 179.31 320.85 181.6 318.75 181.91 318.75 186.41 327.55 186.41 327.55 178 331.95 172.71 331.95 165.91 330.05 165.91 332.65 160.91 332.65 154.81 333.55 154.5 333.25 137.21 334.05 137.1 334.05 140.6 337.35 140.71 337.35 145.91 334.15 146 334.25 154.31 335.45 154.31 335.45 160.91 338.05 165.31 335.85 165.5 335.85 172.31 340.35 178.91 340.35 186.41 354.45 186.41 354.45 179.21 353.25 179.21 353.15 174.41 356.85 174.6 356.85 247.1 359.75 247.1 359.75 200.21 358.55 200.21 358.65 193.6 361.25 191.1 361.25 187.5 362.15 187.41 362.15 191.5 364.25 194.5 364.25 187.81 366.35 187.71 366.35 185.1 369.05 184.81 369.05 180.5 373.05 180.5 372.85 156.1 380.15 156.1 380.15 164.21 374.55 164.41 374.55 180 379.05 180.21 379.15 184.21 381.05 184.21 381.05 187 383.15 186.91 383.15 194.91 386.05 190.91 386.05 187 387.25 187 387.25 191.6 388.95 193.5 388.95 200.81 387.35 200.81 387.65 247.1 390.35 246.41 390.85 166.21 389.15 165.31 389.25 162.5 399.75 157.81 399.75 154.71 402.85 154.71 402.85 157.5 412.15 163.81 412.15 166.81 410.55 167.21 410.95 247.1 95.65 247.1"/><path class="cls-3" d="M93,237.31a168.27,168.27,0,0,1-4.9-39.9c0-90.8,74.1-164.6,165.2-164.6s165.2,73.8,165.2,164.6a162.08,162.08,0,0,1-4.9,39.9h14.6a178.94,178.94,0,0,0,4.6-39.9c0-103.9-83.1-178.7-179.3-178.7-98.9,0-179.3,80.2-179.3,178.7a166.76,166.76,0,0,0,4.6,39.9Z"/><path class="cls-4" d="M414,107.91c12.7,24.9,27.1,64.1,22,110.4a170.47,170.47,0,0,1-3.4,20A9.59,9.59,0,0,1,437,241l7.5,7.5a194.29,194.29,0,0,0,6.8-50.8,199.39,199.39,0,0,0-24-94.4L460,81.91l-9-13c-12.2,8.1-24.4,16.4-36.6,24.7l-6.4,4.3.3.6a27.31,27.31,0,0,0,1.7,2.4l.8,1.2C412.05,104.31,413.65,107.31,414,107.91Z"/><path class="cls-3" d="M396.35,279.51a165.54,165.54,0,0,1-286.6.2h-16c29.9,57.4,90.1,96.9,159.4,96.9a180,180,0,0,0,159.4-96.9h-16Z"/><path class="cls-4" d="M427.75,290.91l-10.5-10.4a184.2,184.2,0,0,1-164,100.4,203.23,203.23,0,0,1-25.8-1.7c-4.9-.7-9.7-1.5-13.1-2.2a190.65,190.65,0,0,1-53.5-20.8c-2.1-1.2-3.4-1.8-4.7-1.7-2.2.3-3.6,2.3-4.1,2.9-2.6,3.6-13.8,14.3-31.2,30.5l-16,16,11,10,18-18c8.4-8.4,16.6-16.8,24.9-25.1,41.3,21.4,76,24.2,94.5,24.2a206,206,0,0,0,27.2-1.9A201.76,201.76,0,0,0,362,362,206.58,206.58,0,0,0,427.75,290.91Z"/><path class="cls-4" d="M503,332.91l-77.2-76.7L9,256.91v-16l419.7,1.3a7,7,0,0,1,5.1,2.2l78.2,78.5Z"/><path class="cls-5" d="M475,400.91c.1-23,.2-46.1.4-69.1l-57.1-57.1-374.3.2v-15l377,.7a7,7,0,0,1,5.1,2.2l61.2,61.3a7.44,7.44,0,0,1,2,5.1c-.1,23.9-.2,47.9-.2,71.8H475Z"/><ellipse class="cls-6" cx="267.35" cy="221.01" rx="29.4" ry="27.4"/><path class="cls-5" d="M292.35,154.41h19.2a1.9,1.9,0,0,1,1.9,1.9v2.5a1.9,1.9,0,0,1-1.9,1.9h-19.2a1.9,1.9,0,0,1-1.9-1.9v-2.5A1.9,1.9,0,0,1,292.35,154.41Z"/><path class="cls-5" d="M322.85,227.91l-40.9-42a1.05,1.05,0,0,1,0-1.3h0l4.6-3.9a1,1,0,0,1,1.4.1l40.9,42a.91.91,0,0,1,0,1.2l-.1.1-4.6,3.9A1.06,1.06,0,0,1,322.85,227.91Z"/><path class="cls-5" d="M286.75,174.31H346a.9.9,0,0,1,.9.9v5.5a.9.9,0,0,1-.9.9h-59.2a.9.9,0,0,1-.9-.9v-5.5A.9.9,0,0,1,286.75,174.31Z"/><path class="cls-5" d="M320.75,222.41l28.2-57.6a1,1,0,0,1,1.3-.5l5.2,2.2a.88.88,0,0,1,.5,1.2v.1l-28.2,57.6a1,1,0,0,1-1.3.5l-5.2-2.2a1.14,1.14,0,0,1-.5-1.3Z"/><path class="cls-5" d="M336.05,163.41h26.8a1.32,1.32,0,0,1,1.3,1.3v3.4a1.32,1.32,0,0,1-1.3,1.3h-26.6a2.65,2.65,0,0,1-2.6-2.6h0v-1A2.37,2.37,0,0,1,336.05,163.41Z"/><ellipse class="cls-6" cx="371.65" cy="221.01" rx="29.4" ry="27.4"/><path class="cls-5" d="M264.05,228.61h0a4.2,4.2,0,0,0,5.4-2.2l28.7-67.3a2.27,2.27,0,0,0-1.1-2.8.1.1,0,0,1-.1-.1l-3.8-1.4a2.41,2.41,0,0,0-3,1.2l-28.5,67a4.27,4.27,0,0,0,2.3,5.5A.1.1,0,0,1,264.05,228.61Z"/><path class="cls-5" d="M349.05,173.81l25.4,48.4a4.27,4.27,0,0,1-1.8,5.6c-.1,0-.2.1-.3.1h0a3.79,3.79,0,0,1-5-1.6l-25.7-49.1a.57.57,0,0,1,.2-.7h0l6.4-2.9a.55.55,0,0,1,.8.2Z"/><path class="cls-5" d="M370.75,228.51h-45.6a2.48,2.48,0,0,1-2.5-2.5v-2.1a2.46,2.46,0,0,1,2.4-2.5h47.2a2.11,2.11,0,0,1,2.1,2.1v1.1A3.55,3.55,0,0,1,370.75,228.51Z"/><ellipse class="cls-5" cx="323.05" cy="222.71" rx="8.9" ry="8.7"/></svg>